<svg width="450" height="5" viewBox="0 0 450 5" fill="none" xmlns="http://www.w3.org/2000/svg">
<g clip-path="url(#clip0_13_423)">
<mask id="mask0_13_423" style="mask-type:luminance" maskUnits="userSpaceOnUse" x="0" y="0" width="450" height="5">
<path d="M0 0H450V5H0V0Z" fill="white"/>
</mask>
<g mask="url(#mask0_13_423)">
<path d="M2.69837 3.07259e-07C2.58281 -0.00013598 2.47057 0.0450701 2.37961 0.128374C2.28866 0.211679 2.22426 0.328258 2.19674 0.459431L2.16848 0.591578L2.06597 0.660735C2.02187 0.690248 1.97627 0.721523 1.92916 0.754119C1.01147 1.38534 -0.241268 2.2465 0.0410121 3.34464C0.246033 4.14501 0.983203 4.99868 7.15757 4.99868C9.11732 4.99868 11.5742 4.91058 14.4577 4.73439C55.3374 2.2465 107.961 1.57872 152.643 1.57872C203.872 1.57872 244.669 2.45573 245.43 2.47247H245.441C245.588 2.47227 245.728 2.40484 245.833 2.28462C245.938 2.1644 245.998 2.00097 450.001 1.82935C246.004 1.65549 245.947 1.48755 245.844 1.3623C245.741 1.23706 245.6 1.16472 245.451 1.16113C242.356 1.09594 202.393 0.273985 152.673 0.273985C107.9 0.273985 55.2195 0.940446 14.397 3.42569C11.3179 3.61246 8.94095 3.68646 7.10857 3.68646C3.81882 3.68646 2.28456 3.4486 1.57867 3.19663L1.0435 3.00502L1.50103 2.62532C1.82231 2.35864 2.15488 2.11107 2.49749 1.88353C3.27386 1.35054 3.57875 1.07964 3.45438 0.547089C3.39634 0.297771 3.2177 3.07259e-07 2.69837 3.07259e-07Z" fill="#BD3146" stroke="#BD3146"/>
</g>
</g>
<defs>
<clipPath id="clip0_13_423">
<rect width="450" height="5" fill="white"/>
</clipPath>
</defs>
</svg>
